<?xml version="1.0" encoding="UTF-8" standalone="no"?>
<!DOCTYPE svg PUBLIC "-//W3C//DTD SVG 1.1//EN"
 "http://www.w3.org/Graphics/SVG/1.1/DTD/svg11.dtd">
<!-- Generated by graphviz version 12.2.1 (20241206.2353)
 -->
<!-- Title: dependency&#45;cruiser output Pages: 1 -->
<svg width="244pt" height="542pt"
 viewBox="0.00 0.00 244.00 542.00" xmlns="http://www.w3.org/2000/svg" xmlns:xlink="http://www.w3.org/1999/xlink">
<g id="graph0" class="graph" transform="scale(1 1) rotate(0) translate(4 538)">
<title>dependency&#45;cruiser output</title>
<polygon fill="white" stroke="none" points="-4,4 -4,-538 240,-538 240,4 -4,4"/>
<g id="clust1" class="cluster">
<title>cluster_src</title>
<path fill="#ffffff" stroke="black" stroke-width="2" d="M20,-8C20,-8 216,-8 216,-8 222,-8 228,-14 228,-20 228,-20 228,-514 228,-514 228,-520 222,-526 216,-526 216,-526 20,-526 20,-526 14,-526 8,-520 8,-514 8,-514 8,-20 8,-20 8,-14 14,-8 20,-8"/>
<text text-anchor="middle" x="118" y="-513.45" font-family="Helvetica,sans-Serif" font-weight="bold" font-size="9.00">src</text>
</g>
<g id="clust2" class="cluster">
<title>cluster_src/data</title>
<path fill="#ffffff" stroke="black" stroke-width="2" d="M28,-16C28,-16 208,-16 208,-16 214,-16 220,-22 220,-28 220,-28 220,-88 220,-88 220,-94 214,-100 208,-100 208,-100 28,-100 28,-100 22,-100 16,-94 16,-88 16,-88 16,-28 16,-28 16,-22 22,-16 28,-16"/>
<text text-anchor="middle" x="118" y="-87.45" font-family="Helvetica,sans-Serif" font-weight="bold" font-size="9.00">data</text>
</g>
<g id="clust3" class="cluster">
<title>cluster_src/lang</title>
<path fill="#ffffff" stroke="black" stroke-width="2" d="M59.25,-108C59.25,-108 207.12,-108 207.12,-108 213.12,-108 219.12,-114 219.12,-120 219.12,-120 219.12,-180 219.12,-180 219.12,-186 213.12,-192 207.12,-192 207.12,-192 59.25,-192 59.25,-192 53.25,-192 47.25,-186 47.25,-180 47.25,-180 47.25,-120 47.25,-120 47.25,-114 53.25,-108 59.25,-108"/>
<text text-anchor="middle" x="133.19" y="-179.45" font-family="Helvetica,sans-Serif" font-weight="bold" font-size="9.00">lang</text>
</g>
<g id="clust4" class="cluster">
<title>cluster_src/ui</title>
<path fill="#ffffff" stroke="black" stroke-width="2" d="M28.25,-200C28.25,-200 136.25,-200 136.25,-200 142.25,-200 148.25,-206 148.25,-212 148.25,-212 148.25,-461 148.25,-461 148.25,-467 142.25,-473 136.25,-473 136.25,-473 28.25,-473 28.25,-473 22.25,-473 16.25,-467 16.25,-461 16.25,-461 16.25,-212 16.25,-212 16.25,-206 22.25,-200 28.25,-200"/>
<text text-anchor="middle" x="82.25" y="-460.45" font-family="Helvetica,sans-Serif" font-weight="bold" font-size="9.00">ui</text>
</g>
<g id="clust5" class="cluster">
<title>cluster_src/ui/calendar</title>
<path fill="#ffffff" stroke="black" stroke-width="2" d="M41.5,-208C41.5,-208 123,-208 123,-208 129,-208 135,-214 135,-220 135,-220 135,-373 135,-373 135,-379 129,-385 123,-385 123,-385 41.5,-385 41.5,-385 35.5,-385 29.5,-379 29.5,-373 29.5,-373 29.5,-220 29.5,-220 29.5,-214 35.5,-208 41.5,-208"/>
<text text-anchor="middle" x="82.25" y="-372.45" font-family="Helvetica,sans-Serif" font-weight="bold" font-size="9.00">calendar</text>
</g>
<g id="clust6" class="cluster">
<title>cluster_src/ui/setting</title>
<path fill="#ffffff" stroke="black" stroke-width="2" d="M36.25,-393C36.25,-393 128.25,-393 128.25,-393 134.25,-393 140.25,-399 140.25,-405 140.25,-405 140.25,-434 140.25,-434 140.25,-440 134.25,-446 128.25,-446 128.25,-446 36.25,-446 36.25,-446 30.25,-446 24.25,-440 24.25,-434 24.25,-434 24.25,-405 24.25,-405 24.25,-399 30.25,-393 36.25,-393"/>
<text text-anchor="middle" x="82.25" y="-433.45" font-family="Helvetica,sans-Serif" font-weight="bold" font-size="9.00">setting</text>
</g>
<!-- src/Index.ts -->
<g id="node1" class="node">
<title>src/Index.ts</title>
<g id="a_node1"><a xlink:href="src/Index.ts" xlink:title="no&#45;orphans">
<path fill="#ccffcc" stroke="orange" d="M103.08,-499.25C103.08,-499.25 61.42,-499.25 61.42,-499.25 58.33,-499.25 55.25,-496.17 55.25,-493.08 55.25,-493.08 55.25,-486.92 55.25,-486.92 55.25,-483.83 58.33,-480.75 61.42,-480.75 61.42,-480.75 103.08,-480.75 103.08,-480.75 106.17,-480.75 109.25,-483.83 109.25,-486.92 109.25,-486.92 109.25,-493.08 109.25,-493.08 109.25,-496.17 106.17,-499.25 103.08,-499.25"/>
<text text-anchor="start" x="66.5" y="-486.7" font-family="Helvetica,sans-Serif" font-size="9.00" fill="orange">Index.ts</text>
</a>
</g>
</g>
<!-- src/data/Settting.ts -->
<g id="node2" class="node">
<title>src/data/Settting.ts</title>
<g id="a_node2"><a xlink:href="src/data/Settting.ts" xlink:title="Settting.ts">
<path fill="#ddfeff" stroke="black" d="M205.83,-42.25C205.83,-42.25 162.42,-42.25 162.42,-42.25 159.33,-42.25 156.25,-39.17 156.25,-36.08 156.25,-36.08 156.25,-29.92 156.25,-29.92 156.25,-26.83 159.33,-23.75 162.42,-23.75 162.42,-23.75 205.83,-23.75 205.83,-23.75 208.92,-23.75 212,-26.83 212,-29.92 212,-29.92 212,-36.08 212,-36.08 212,-39.17 208.92,-42.25 205.83,-42.25"/>
<text text-anchor="start" x="164.25" y="-29.7" font-family="Helvetica,sans-Serif" font-size="9.00">Settting.ts</text>
</a>
</g>
</g>
<!-- src/data/StatisticsDataManager.ts -->
<g id="node3" class="node">
<title>src/data/StatisticsDataManager.ts</title>
<g id="a_node3"><a xlink:href="src/data/StatisticsDataManager.ts" xlink:title="StatisticsDataManager.ts">
<path fill="#ddfeff" stroke="black" d="M134.33,-42.25C134.33,-42.25 30.17,-42.25 30.17,-42.25 27.08,-42.25 24,-39.17 24,-36.08 24,-36.08 24,-29.92 24,-29.92 24,-26.83 27.08,-23.75 30.17,-23.75 30.17,-23.75 134.33,-23.75 134.33,-23.75 137.42,-23.75 140.5,-26.83 140.5,-29.92 140.5,-29.92 140.5,-36.08 140.5,-36.08 140.5,-39.17 137.42,-42.25 134.33,-42.25"/>
<text text-anchor="start" x="32" y="-29.7" font-family="Helvetica,sans-Serif" font-size="9.00">StatisticsDataManager.ts</text>
</a>
</g>
</g>
<!-- src/data/StatisticsDataManager.ts&#45;&gt;src/data/Settting.ts -->
<g id="edge1" class="edge">
<title>src/data/StatisticsDataManager.ts&#45;&gt;src/data/Settting.ts</title>
<path fill="none" stroke="#000000" stroke-width="2" stroke-opacity="0.200000" d="M140.77,-33C142.88,-33 144.98,-33 147.04,-33"/>
<polygon fill="#000000" fill-opacity="0.200000" stroke="#000000" stroke-width="2" stroke-opacity="0.200000" points="146.78,-35.1 152.78,-33 146.78,-30.9 146.78,-35.1"/>
</g>
<!-- src/data/Store.ts -->
<g id="node4" class="node">
<title>src/data/Store.ts</title>
<g id="a_node4"><a xlink:href="src/data/Store.ts" xlink:title="no&#45;orphans">
<path fill="#ccffcc" stroke="orange" d="M103.08,-73.25C103.08,-73.25 61.42,-73.25 61.42,-73.25 58.33,-73.25 55.25,-70.17 55.25,-67.08 55.25,-67.08 55.25,-60.92 55.25,-60.92 55.25,-57.83 58.33,-54.75 61.42,-54.75 61.42,-54.75 103.08,-54.75 103.08,-54.75 106.17,-54.75 109.25,-57.83 109.25,-60.92 109.25,-60.92 109.25,-67.08 109.25,-67.08 109.25,-70.17 106.17,-73.25 103.08,-73.25"/>
<text text-anchor="start" x="66.88" y="-60.7" font-family="Helvetica,sans-Serif" font-size="9.00" fill="orange">Store.ts</text>
</a>
</g>
</g>
<!-- src/lang/en.ts -->
<g id="node5" class="node">
<title>src/lang/en.ts</title>
<g id="a_node5"><a xlink:href="src/lang/en.ts" xlink:title="en.ts">
<path fill="#ddfeff" stroke="black" d="M204.96,-134.25C204.96,-134.25 163.29,-134.25 163.29,-134.25 160.21,-134.25 157.12,-131.17 157.12,-128.08 157.12,-128.08 157.12,-121.92 157.12,-121.92 157.12,-118.83 160.21,-115.75 163.29,-115.75 163.29,-115.75 204.96,-115.75 204.96,-115.75 208.04,-115.75 211.12,-118.83 211.12,-121.92 211.12,-121.92 211.12,-128.08 211.12,-128.08 211.12,-131.17 208.04,-134.25 204.96,-134.25"/>
<text text-anchor="start" x="174.38" y="-121.7" font-family="Helvetica,sans-Serif" font-size="9.00">en.ts</text>
</a>
</g>
</g>
<!-- src/lang/index.ts -->
<g id="node6" class="node">
<title>src/lang/index.ts</title>
<g id="a_node6"><a xlink:href="src/lang/index.ts" xlink:title="index.ts">
<path fill="#ddfeff" stroke="black" d="M103.08,-149.25C103.08,-149.25 61.42,-149.25 61.42,-149.25 58.33,-149.25 55.25,-146.17 55.25,-143.08 55.25,-143.08 55.25,-136.92 55.25,-136.92 55.25,-133.83 58.33,-130.75 61.42,-130.75 61.42,-130.75 103.08,-130.75 103.08,-130.75 106.17,-130.75 109.25,-133.83 109.25,-136.92 109.25,-136.92 109.25,-143.08 109.25,-143.08 109.25,-146.17 106.17,-149.25 103.08,-149.25"/>
<text text-anchor="start" x="66.5" y="-136.7" font-family="Helvetica,sans-Serif" font-size="9.00">index.ts</text>
</a>
</g>
</g>
<!-- src/lang/index.ts&#45;&gt;src/lang/en.ts -->
<g id="edge2" class="edge">
<title>src/lang/index.ts&#45;&gt;src/lang/en.ts</title>
<path fill="none" stroke="#000000" stroke-width="2" stroke-opacity="0.200000" d="M109.49,-136.06C121.21,-134.3 135.2,-132.2 147.82,-130.3"/>
<polygon fill="#000000" fill-opacity="0.200000" stroke="#000000" stroke-width="2" stroke-opacity="0.200000" points="148.1,-132.38 153.72,-129.42 147.47,-128.23 148.1,-132.38"/>
</g>
<!-- src/lang/zh&#45;cn.ts -->
<g id="node7" class="node">
<title>src/lang/zh&#45;cn.ts</title>
<g id="a_node7"><a xlink:href="src/lang/zh-cn.ts" xlink:title="zh&#45;cn.ts">
<path fill="#ddfeff" stroke="black" d="M204.96,-165.25C204.96,-165.25 163.29,-165.25 163.29,-165.25 160.21,-165.25 157.12,-162.17 157.12,-159.08 157.12,-159.08 157.12,-152.92 157.12,-152.92 157.12,-149.83 160.21,-146.75 163.29,-146.75 163.29,-146.75 204.96,-146.75 204.96,-146.75 208.04,-146.75 211.12,-149.83 211.12,-152.92 211.12,-152.92 211.12,-159.08 211.12,-159.08 211.12,-162.17 208.04,-165.25 204.96,-165.25"/>
<text text-anchor="start" x="168.38" y="-152.7" font-family="Helvetica,sans-Serif" font-size="9.00">zh&#45;cn.ts</text>
</a>
</g>
</g>
<!-- src/lang/index.ts&#45;&gt;src/lang/zh&#45;cn.ts -->
<g id="edge3" class="edge">
<title>src/lang/index.ts&#45;&gt;src/lang/zh&#45;cn.ts</title>
<path fill="none" stroke="#000000" stroke-width="2" stroke-opacity="0.200000" d="M109.49,-144.2C121.21,-146.08 135.2,-148.32 147.82,-150.34"/>
<polygon fill="#000000" fill-opacity="0.200000" stroke="#000000" stroke-width="2" stroke-opacity="0.200000" points="147.47,-152.41 153.72,-151.29 148.13,-148.27 147.47,-152.41"/>
</g>
<!-- src/ui/calendar/Calendar.vue -->
<g id="node8" class="node">
<title>src/ui/calendar/Calendar.vue</title>
<g id="a_node8"><a xlink:href="src/ui/calendar/Calendar.vue" xlink:title="no&#45;orphans">
<path fill="#ccffcc" stroke="orange" d="M111.46,-234.25C111.46,-234.25 53.04,-234.25 53.04,-234.25 49.96,-234.25 46.88,-231.17 46.88,-228.08 46.88,-228.08 46.88,-221.92 46.88,-221.92 46.88,-218.83 49.96,-215.75 53.04,-215.75 53.04,-215.75 111.46,-215.75 111.46,-215.75 114.54,-215.75 117.62,-218.83 117.62,-221.92 117.62,-221.92 117.62,-228.08 117.62,-228.08 117.62,-231.17 114.54,-234.25 111.46,-234.25"/>
<text text-anchor="start" x="54.88" y="-221.7" font-family="Helvetica,sans-Serif" font-size="9.00" fill="orange">Calendar.vue</text>
</a>
</g>
</g>
<!-- src/ui/calendar/CalendarView.ts -->
<g id="node9" class="node">
<title>src/ui/calendar/CalendarView.ts</title>
<g id="a_node9"><a xlink:href="src/ui/calendar/CalendarView.ts" xlink:title="no&#45;orphans">
<path fill="#ccffcc" stroke="orange" d="M117.46,-265.25C117.46,-265.25 47.04,-265.25 47.04,-265.25 43.96,-265.25 40.88,-262.17 40.88,-259.08 40.88,-259.08 40.88,-252.92 40.88,-252.92 40.88,-249.83 43.96,-246.75 47.04,-246.75 47.04,-246.75 117.46,-246.75 117.46,-246.75 120.54,-246.75 123.62,-249.83 123.62,-252.92 123.62,-252.92 123.62,-259.08 123.62,-259.08 123.62,-262.17 120.54,-265.25 117.46,-265.25"/>
<text text-anchor="start" x="48.88" y="-252.7" font-family="Helvetica,sans-Serif" font-size="9.00" fill="orange">CalendarView.ts</text>
</a>
</g>
</g>
<!-- src/ui/calendar/Progress.vue -->
<g id="node10" class="node">
<title>src/ui/calendar/Progress.vue</title>
<g id="a_node10"><a xlink:href="src/ui/calendar/Progress.vue" xlink:title="no&#45;orphans">
<path fill="#ccffcc" stroke="orange" d="M111.08,-296.25C111.08,-296.25 53.42,-296.25 53.42,-296.25 50.33,-296.25 47.25,-293.17 47.25,-290.08 47.25,-290.08 47.25,-283.92 47.25,-283.92 47.25,-280.83 50.33,-277.75 53.42,-277.75 53.42,-277.75 111.08,-277.75 111.08,-277.75 114.17,-277.75 117.25,-280.83 117.25,-283.92 117.25,-283.92 117.25,-290.08 117.25,-290.08 117.25,-293.17 114.17,-296.25 111.08,-296.25"/>
<text text-anchor="start" x="55.25" y="-283.7" font-family="Helvetica,sans-Serif" font-size="9.00" fill="orange">Progress.vue</text>
</a>
</g>
</g>
<!-- src/ui/calendar/SetNumValue.vue -->
<g id="node11" class="node">
<title>src/ui/calendar/SetNumValue.vue</title>
<g id="a_node11"><a xlink:href="src/ui/calendar/SetNumValue.vue" xlink:title="no&#45;orphans">
<path fill="#ccffcc" stroke="orange" d="M120.83,-327.25C120.83,-327.25 43.67,-327.25 43.67,-327.25 40.58,-327.25 37.5,-324.17 37.5,-321.08 37.5,-321.08 37.5,-314.92 37.5,-314.92 37.5,-311.83 40.58,-308.75 43.67,-308.75 43.67,-308.75 120.83,-308.75 120.83,-308.75 123.92,-308.75 127,-311.83 127,-314.92 127,-314.92 127,-321.08 127,-321.08 127,-324.17 123.92,-327.25 120.83,-327.25"/>
<text text-anchor="start" x="45.5" y="-314.7" font-family="Helvetica,sans-Serif" font-size="9.00" fill="orange">SetNumValue.vue</text>
</a>
</g>
</g>
<!-- src/ui/calendar/VueIndex.vue -->
<g id="node12" class="node">
<title>src/ui/calendar/VueIndex.vue</title>
<g id="a_node12"><a xlink:href="src/ui/calendar/VueIndex.vue" xlink:title="no&#45;orphans">
<path fill="#ccffcc" stroke="orange" d="M112.21,-358.25C112.21,-358.25 52.29,-358.25 52.29,-358.25 49.21,-358.25 46.12,-355.17 46.12,-352.08 46.12,-352.08 46.12,-345.92 46.12,-345.92 46.12,-342.83 49.21,-339.75 52.29,-339.75 52.29,-339.75 112.21,-339.75 112.21,-339.75 115.29,-339.75 118.38,-342.83 118.38,-345.92 118.38,-345.92 118.38,-352.08 118.38,-352.08 118.38,-355.17 115.29,-358.25 112.21,-358.25"/>
<text text-anchor="start" x="54.12" y="-345.7" font-family="Helvetica,sans-Serif" font-size="9.00" fill="orange">VueIndex.vue</text>
</a>
</g>
</g>
<!-- src/ui/setting/SampleSettingTab.ts -->
<g id="node13" class="node">
<title>src/ui/setting/SampleSettingTab.ts</title>
<g id="a_node13"><a xlink:href="src/ui/setting/SampleSettingTab.ts" xlink:title="no&#45;orphans">
<path fill="#ccffcc" stroke="orange" d="M126.08,-419.25C126.08,-419.25 38.42,-419.25 38.42,-419.25 35.33,-419.25 32.25,-416.17 32.25,-413.08 32.25,-413.08 32.25,-406.92 32.25,-406.92 32.25,-403.83 35.33,-400.75 38.42,-400.75 38.42,-400.75 126.08,-400.75 126.08,-400.75 129.17,-400.75 132.25,-403.83 132.25,-406.92 132.25,-406.92 132.25,-413.08 132.25,-413.08 132.25,-416.17 129.17,-419.25 126.08,-419.25"/>
<text text-anchor="start" x="40.25" y="-406.7" font-family="Helvetica,sans-Serif" font-size="9.00" fill="orange">SampleSettingTab.ts</text>
</a>
</g>
</g>
</g>
</svg>
